<svg width="9" height="9" viewBox="0 0 9 9" fill="none" xmlns="http://www.w3.org/2000/svg">
<path d="M4.836 8.56C4.004 8.56 3.25733 8.37867 2.596 8.016C1.94533 7.64267 1.43333 7.136 1.06 6.496C0.686667 5.84533 0.5 5.104 0.5 4.272C0.5 3.42933 0.686667 2.688 1.06 2.048C1.43333 1.408 1.94533 0.906667 2.596 0.544C3.25733 0.181333 4.004 0 4.836 0C5.55067 0 6.196 0.138667 6.772 0.416C7.348 0.693334 7.80133 1.10933 8.132 1.664L7.284 2.24C6.996 1.81333 6.63867 1.49867 6.212 1.296C5.78533 1.09333 5.32133 0.992 4.82 0.992C4.22267 0.992 3.684 1.13067 3.204 1.408C2.724 1.67467 2.34533 2.05333 2.068 2.544C1.79067 3.03467 1.652 3.61067 1.652 4.272C1.652 4.93333 1.79067 5.50933 2.068 6C2.34533 6.49067 2.724 6.87467 3.204 7.152C3.684 7.41867 4.22267 7.552 4.82 7.552C5.32133 7.552 5.78533 7.45067 6.212 7.248C6.63867 7.04533 6.996 6.736 7.284 6.32L8.132 6.896C7.80133 7.44 7.348 7.856 6.772 8.144C6.196 8.42133 5.55067 8.56 4.836 8.56Z" fill="#01A85A"/>
</svg>
