<svg width="42" height="42" viewBox="0 0 42 42" fill="none" xmlns="http://www.w3.org/2000/svg">
<path d="M24.5 14H17.5C13.1565 14 12.25 14.9065 12.25 19.25V38.5H29.75V19.25C29.75 14.9065 28.8435 14 24.5 14Z" stroke="#01A85A" stroke-width="3" stroke-linejoin="round"/>
<path d="M19.25 21L22.75 21M19.25 26.25H22.75M19.25 31.5H22.75" stroke="#01A85A" stroke-width="3" stroke-linecap="round" stroke-linejoin="round"/>
<path d="M36.75 38.5V14.3249C36.75 12.1754 36.75 11.1006 36.2273 10.2369C35.7046 9.37321 34.7632 8.89257 32.8805 7.93128L25.2826 4.05188C23.2518 3.01498 22.75 3.38041 22.75 5.65028V13.4811" stroke="#01A85A" stroke-width="3" stroke-linecap="round" stroke-linejoin="round"/>
<path d="M5.25 38.5V22.75C5.25 21.3022 5.55217 21 7 21H12.25" stroke="#01A85A" stroke-width="3" stroke-linecap="round" stroke-linejoin="round"/>
<path d="M38.5 38.5L3.5 38.5" stroke="#01A85A" stroke-width="3" stroke-linecap="round" stroke-linejoin="round"/>
</svg>
