<svg width="132" height="135" viewBox="0 0 132 135" fill="none" xmlns="http://www.w3.org/2000/svg">
<path d="M85.75 49H61.25C46.0477 49 42.875 52.1728 42.875 67.375V134.75H104.125V67.375C104.125 52.1727 100.952 49 85.75 49Z" stroke="#C1C1C1" stroke-opacity="0.3" stroke-width="8" stroke-linejoin="round"/>
<path d="M67.375 73.5L79.625 73.5M67.375 91.875H79.625M67.375 110.25H79.625" stroke="#C1C1C1" stroke-opacity="0.3" stroke-width="8" stroke-linecap="round" stroke-linejoin="round"/>
<path d="M128.625 134.75V50.137C128.625 42.6137 128.625 38.8521 126.795 35.8292C124.966 32.8062 121.671 31.124 115.082 27.7595L88.4892 14.1816C81.3814 10.5524 79.625 11.8314 79.625 19.776V47.1839" stroke="#C1C1C1" stroke-opacity="0.3" stroke-width="8" stroke-linecap="round" stroke-linejoin="round"/>
<path d="M18.375 134.75V79.625C18.375 74.5576 19.4326 73.5 24.5 73.5H42.875" stroke="#C1C1C1" stroke-opacity="0.3" stroke-width="8" stroke-linecap="round" stroke-linejoin="round"/>
<path d="M134.75 134.75L12.25 134.75" stroke="#C1C1C1" stroke-opacity="0.3" stroke-width="8" stroke-linecap="round" stroke-linejoin="round"/>
</svg>
