<svg width="23" height="22" viewBox="0 0 23 22" fill="none" xmlns="http://www.w3.org/2000/svg">
<path d="M18.1179 4.98022L17.5567 14.0577C17.4133 16.3769 17.3417 17.5365 16.7603 18.3702C16.4729 18.7824 16.1029 19.1303 15.6737 19.3917C14.8057 19.9205 13.6439 19.9205 11.3202 19.9205C8.99351 19.9205 7.83015 19.9205 6.96158 19.3908C6.53215 19.1288 6.16199 18.7804 5.87468 18.3675C5.29353 17.5324 5.22343 16.3712 5.08322 14.0487L4.53577 4.98022" stroke="#F02E39" stroke-width="1.5" stroke-linecap="round"/>
<path d="M3.17737 4.9797H19.4759M14.999 4.9797L14.3808 3.70455C13.9702 2.85751 13.7649 2.43398 13.4108 2.16984C13.3322 2.11125 13.249 2.05914 13.162 2.01401C12.7699 1.81055 12.2992 1.81055 11.3579 1.81055C10.3929 1.81055 9.91045 1.81055 9.51177 2.02254C9.42341 2.06952 9.33909 2.12375 9.25969 2.18466C8.90144 2.4595 8.70132 2.89852 8.30108 3.77656L7.75265 4.9797" stroke="#F02E39" stroke-width="1.5" stroke-linecap="round"/>
<path d="M9.06299 14.9399L9.06299 9.50711" stroke="#F02E39" stroke-width="1.5" stroke-linecap="round"/>
<path d="M13.5902 14.9404L13.5902 9.50757" stroke="#F02E39" stroke-width="1.5" stroke-linecap="round"/>
</svg>
