<svg width="23" height="22" viewBox="0 0 23 22" fill="none" xmlns="http://www.w3.org/2000/svg">
<path d="M18.1179 4.97998L17.5567 14.0574C17.4133 16.3767 17.3417 17.5363 16.7603 18.37C16.4729 18.7822 16.1029 19.1301 15.6737 19.3915C14.8057 19.9203 13.6439 19.9203 11.3202 19.9203C8.99351 19.9203 7.83015 19.9203 6.96158 19.3905C6.53215 19.1286 6.16199 18.7801 5.87468 18.3673C5.29353 17.5322 5.22343 16.3709 5.08322 14.0484L4.53577 4.97998" stroke="#F02E39" stroke-width="1.5" stroke-linecap="round"/>
<path d="M3.17761 4.98019H19.4761M14.9992 4.98019L14.3811 3.70504C13.9705 2.85799 13.7652 2.43447 13.411 2.17033C13.3324 2.11174 13.2493 2.05963 13.1623 2.0145C12.7701 1.81104 12.2995 1.81104 11.3581 1.81104C10.3932 1.81104 9.91069 1.81104 9.51201 2.02302C9.42365 2.07001 9.33934 2.12423 9.25994 2.18515C8.90168 2.45999 8.70156 2.89901 8.30133 3.77705L7.7529 4.98019" stroke="#F02E39" stroke-width="1.5" stroke-linecap="round"/>
<path d="M9.06299 14.9402L9.06299 9.50735" stroke="#F02E39" stroke-width="1.5" stroke-linecap="round"/>
<path d="M13.5902 14.9399L13.5902 9.50708" stroke="#F02E39" stroke-width="1.5" stroke-linecap="round"/>
</svg>
