<svg width="127" height="122" viewBox="0 0 127 122" fill="none" xmlns="http://www.w3.org/2000/svg">
<path d="M21.4375 61.25C21.4375 38.1512 21.4375 26.6018 29.0619 19.4259C36.6863 12.25 48.9575 12.25 73.5 12.25H78.233C98.2078 12.25 108.195 12.25 115.131 17.1367C117.118 18.5369 118.883 20.1973 120.37 22.0677C125.562 28.5956 125.562 37.9956 125.562 56.7955V72.3864C125.562 90.5358 125.563 99.6105 122.69 106.858C118.073 118.51 108.308 127.701 95.9275 132.047C88.2268 134.75 78.5849 134.75 59.3011 134.75C48.2818 134.75 42.7722 134.75 38.3718 133.205C31.2975 130.722 25.7173 125.47 23.0788 118.812C21.4375 114.67 21.4375 109.485 21.4375 99.1136V61.25Z" stroke="#C1C1C1" stroke-opacity="0.3" stroke-width="8" stroke-linejoin="round"/>
<path d="M125.562 73.5C125.562 84.7758 116.422 93.9167 105.146 93.9167C101.068 93.9167 96.2603 93.2021 92.2954 94.2645C88.7726 95.2084 86.0209 97.9601 85.077 101.483C84.0146 105.448 84.7292 110.255 84.7292 114.333C84.7292 125.609 75.5883 134.75 64.3125 134.75" stroke="#C1C1C1" stroke-opacity="0.3" stroke-width="8" stroke-linecap="round" stroke-linejoin="round"/>
<path d="M49 42.875H91.875" stroke="#C1C1C1" stroke-opacity="0.3" stroke-width="8" stroke-linecap="round" stroke-linejoin="round"/>
<path d="M49 67.375H67.375" stroke="#C1C1C1" stroke-opacity="0.3" stroke-width="8" stroke-linecap="round" stroke-linejoin="round"/>
</svg>
