<svg width="22" height="22" viewBox="0 0 22 22" fill="none" xmlns="http://www.w3.org/2000/svg">
<path d="M4.52726 6.33765L3.4237 7.07335C2.6326 7.60076 2.23705 7.86446 2.02268 8.26662C1.80832 8.66878 1.80991 9.14142 1.81308 10.0867C1.81691 11.2248 1.82749 12.3844 1.85678 13.5578C1.92627 16.3417 1.96101 17.7336 2.98453 18.7572C4.00804 19.7807 5.41878 19.8159 8.24026 19.8864C9.99555 19.9303 11.7353 19.9303 13.4905 19.8864C16.312 19.8159 17.7228 19.7807 18.7463 18.7571C19.7698 17.7336 19.8045 16.3417 19.874 13.5578C19.9033 12.3844 19.9139 11.2248 19.9177 10.0867C19.9209 9.14142 19.9224 8.66878 19.7081 8.26662C19.4937 7.86446 19.0982 7.60075 18.3071 7.07335L17.2035 6.33765" stroke="#01A85A" stroke-width="1.55219" stroke-linejoin="round"/>
<path d="M1.81091 9.0542L8.07028 12.8098C9.43209 13.6269 10.113 14.0354 10.8654 14.0354C11.6178 14.0354 12.2987 13.6269 13.6605 12.8098L19.9198 9.0542" stroke="#01A85A" stroke-width="1.55219" stroke-linejoin="round"/>
<path d="M4.52722 10.866V5.43331C4.52722 3.72598 4.52722 2.87232 5.05762 2.34192C5.58802 1.81152 6.44168 1.81152 8.14901 1.81152H13.5817C15.289 1.81152 16.1427 1.81152 16.6731 2.34192C17.2035 2.87232 17.2035 3.72598 17.2035 5.43331V10.866" stroke="#01A85A" stroke-width="1.55219"/>
<path d="M9.0542 9.0542H12.676M9.0542 5.43241H12.676" stroke="#01A85A" stroke-width="1.55219" stroke-linecap="round" stroke-linejoin="round"/>
</svg>
