<svg width="22" height="22" viewBox="0 0 22 22" fill="none" xmlns="http://www.w3.org/2000/svg">
<path d="M4.52726 6.33862L3.4237 7.07433C2.6326 7.60173 2.23705 7.86543 2.02268 8.2676C1.80832 8.66976 1.80991 9.1424 1.81308 10.0877C1.81691 11.2258 1.82749 12.3854 1.85678 13.5588C1.92627 16.3426 1.96101 17.7346 2.98453 18.7581C4.00804 19.7817 5.41878 19.8169 8.24026 19.8874C9.99555 19.9313 11.7353 19.9313 13.4905 19.8874C16.312 19.8169 17.7228 19.7817 18.7463 18.7581C19.7698 17.7346 19.8045 16.3426 19.874 13.5588C19.9033 12.3854 19.9139 11.2258 19.9177 10.0877C19.9209 9.14239 19.9224 8.66975 19.7081 8.26759C19.4937 7.86543 19.0982 7.60173 18.3071 7.07433L17.2035 6.33862" stroke="#01A85A" stroke-width="1.55219" stroke-linejoin="round"/>
<path d="M1.81091 9.05493L8.07028 12.8106C9.43209 13.6276 10.113 14.0362 10.8654 14.0362C11.6178 14.0362 12.2987 13.6276 13.6605 12.8106L19.9198 9.05493" stroke="#01A85A" stroke-width="1.55219" stroke-linejoin="round"/>
<path d="M4.52722 10.8653V5.43258C4.52722 3.72525 4.52722 2.87159 5.05762 2.34119C5.58802 1.81079 6.44168 1.81079 8.14901 1.81079H13.5817C15.289 1.81079 16.1427 1.81079 16.6731 2.34119C17.2035 2.87159 17.2035 3.72525 17.2035 5.43258V10.8653" stroke="#01A85A" stroke-width="1.55219"/>
<path d="M9.0542 9.05493H12.676M9.0542 5.43315H12.676" stroke="#01A85A" stroke-width="1.55219" stroke-linecap="round" stroke-linejoin="round"/>
</svg>
