<svg width="30" height="31" viewBox="0 0 30 31" fill="none" xmlns="http://www.w3.org/2000/svg">
<path d="M15.025 26.5142C12.1125 26.5142 9.19996 26.0517 6.43746 25.1267C5.38746 24.7642 4.58746 24.0267 4.23746 23.0642C3.87496 22.1017 3.99996 21.0392 4.57496 20.0892L6.01246 17.7017C6.31246 17.2017 6.58746 16.2017 6.58746 15.6142V12.0017C6.58746 7.35171 10.375 3.56421 15.025 3.56421C19.675 3.56421 23.4625 7.35171 23.4625 12.0017V15.6142C23.4625 16.1892 23.7375 17.2017 24.0375 17.7142L25.4625 20.0892C26 20.9892 26.1 22.0767 25.7375 23.0642C25.375 24.0517 24.5875 24.8017 23.6 25.1267C20.85 26.0517 17.9375 26.5142 15.025 26.5142ZM15.025 5.43921C11.4125 5.43921 8.46246 8.37671 8.46246 12.0017V15.6142C8.46246 16.5267 8.08746 17.8767 7.62496 18.6642L6.18746 21.0517C5.91246 21.5142 5.83746 22.0017 5.99996 22.4142C6.14996 22.8392 6.52496 23.1642 7.03746 23.3392C12.2625 25.0892 17.8 25.0892 23.025 23.3392C23.475 23.1892 23.825 22.8517 23.9875 22.4017C24.15 21.9517 24.1125 21.4642 23.8625 21.0517L22.425 18.6642C21.95 17.8517 21.5875 16.5142 21.5875 15.6017V12.0017C21.5875 8.37671 18.65 5.43921 15.025 5.43921Z" fill="#01A85A"/>
<path d="M17.35 5.77666C17.2625 5.77666 17.175 5.76416 17.0875 5.73916C16.725 5.63916 16.375 5.56416 16.0375 5.51416C14.975 5.37666 13.95 5.45166 12.9875 5.73916C12.6375 5.85166 12.2625 5.73916 12.025 5.47666C11.7875 5.21416 11.7125 4.83916 11.85 4.50166C12.3625 3.18916 13.6125 2.32666 15.0375 2.32666C16.4625 2.32666 17.7125 3.17666 18.225 4.50166C18.35 4.83916 18.2875 5.21416 18.05 5.47666C17.8625 5.67666 17.6 5.77666 17.35 5.77666Z" fill="#01A85A"/>
<path d="M15.025 29.3641C13.7875 29.3641 12.5875 28.8641 11.7125 27.9891C10.8375 27.1141 10.3375 25.9141 10.3375 24.6766H12.2125C12.2125 25.4141 12.5125 26.1391 13.0375 26.6641C13.5625 27.1891 14.2875 27.4891 15.025 27.4891C16.575 27.4891 17.8375 26.2266 17.8375 24.6766H19.7125C19.7125 27.2641 17.6125 29.3641 15.025 29.3641Z" fill="#01A85A"/>
</svg>
