<svg width="23" height="22" viewBox="0 0 23 22" fill="none" xmlns="http://www.w3.org/2000/svg">
<path d="M11.5956 7.24365V10.8655L12.9538 12.2238" stroke="#A8CB6E" stroke-width="1.5" stroke-linecap="round" stroke-linejoin="round"/>
<path d="M18.4276 14.8978C19.9093 15.6979 20.6501 16.098 20.6501 16.7509C20.6501 17.4039 19.9093 17.804 18.4276 18.6041L17.4186 19.149C16.2807 19.7635 15.7117 20.0707 15.4382 19.8473C14.7682 19.3002 15.8119 17.8883 16.0687 17.3882C16.329 16.8813 16.3243 16.6114 16.0687 16.1137C15.8119 15.6135 14.7682 14.2017 15.4382 13.6546C15.7117 13.4312 16.2807 13.7384 17.4186 14.3529L18.4276 14.8978Z" stroke="#A8CB6E" stroke-width="1.5"/>
<path d="M12.525 19.8734C12.2195 19.9045 11.9096 19.9205 11.5959 19.9205C6.59508 19.9205 2.54114 15.8665 2.54114 10.8658C2.54114 5.86497 6.59508 1.81104 11.5959 1.81104C16.5967 1.81104 20.6506 5.86497 20.6506 10.8658C20.6506 11.4859 20.5882 12.0916 20.4695 12.6767" stroke="#A8CB6E" stroke-width="1.5" stroke-linecap="round"/>
</svg>
