<svg width="23" height="22" viewBox="0 0 23 22" fill="none" xmlns="http://www.w3.org/2000/svg">
<path d="M11.5957 7.2439V10.8658L12.9539 12.224" stroke="#A8CB6E" stroke-width="1.5" stroke-linecap="round" stroke-linejoin="round"/>
<path d="M18.4277 14.8978C19.9094 15.6979 20.6502 16.098 20.6502 16.7509C20.6502 17.4039 19.9094 17.804 18.4277 18.6041L17.4187 19.149C16.2808 19.7635 15.7118 20.0707 15.4383 19.8473C14.7683 19.3002 15.8121 17.8883 16.0689 17.3882C16.3291 16.8813 16.3244 16.6114 16.0689 16.1137C15.8121 15.6135 14.7683 14.2017 15.4383 13.6546C15.7118 13.4312 16.2808 13.7384 17.4187 14.3529L18.4277 14.8978Z" stroke="#A8CB6E" stroke-width="1.5"/>
<path d="M12.5251 19.8729C12.2196 19.904 11.9097 19.92 11.596 19.92C6.5952 19.92 2.54126 15.8661 2.54126 10.8653C2.54126 5.86449 6.5952 1.81055 11.596 1.81055C16.5968 1.81055 20.6507 5.86449 20.6507 10.8653C20.6507 11.4855 20.5884 12.0911 20.4696 12.6762" stroke="#A8CB6E" stroke-width="1.5" stroke-linecap="round"/>
</svg>
