<svg width="25" height="25" viewBox="0 0 25 25" fill="none" xmlns="http://www.w3.org/2000/svg">
<path d="M10.8835 22.8037H6.83157C5.22974 22.8037 3.95566 22.0243 2.81169 20.9344C0.469865 18.7033 4.31481 16.9204 5.78126 16.0472C8.42491 14.473 11.615 14.1091 14.5114 14.9552" stroke="#01A85A" stroke-width="1.55479" stroke-linecap="round" stroke-linejoin="round"/>
<path d="M17.1027 6.73738C17.1027 9.31345 15.0144 11.4018 12.4383 11.4018C9.86223 11.4018 7.77391 9.31345 7.77391 6.73738C7.77391 4.16131 9.86223 2.073 12.4383 2.073C15.0144 2.073 17.1027 4.16131 17.1027 6.73738Z" stroke="#01A85A" stroke-width="1.55479"/>
<path d="M19.1065 14.3543C19.454 13.9777 19.6278 13.7894 19.8125 13.6796C20.2581 13.4146 20.8068 13.4063 21.2598 13.6578C21.4476 13.7621 21.6267 13.9451 21.985 14.3111C22.3433 14.6771 22.5224 14.86 22.6245 15.0518C22.8707 15.5146 22.8626 16.0752 22.6032 16.5304C22.4957 16.719 22.3113 16.8965 21.9427 17.2516L17.5565 21.4763C16.8578 22.1491 16.5085 22.4856 16.072 22.6561C15.6354 22.8266 15.1555 22.8141 14.1956 22.789L14.065 22.7856C13.7728 22.7779 13.6267 22.7741 13.5418 22.6777C13.4569 22.5813 13.4685 22.4325 13.4917 22.1348L13.5042 21.9732C13.5695 21.1354 13.6022 20.7165 13.7657 20.34C13.9293 19.9635 14.2115 19.6577 14.7759 19.0462L19.1065 14.3543Z" stroke="#01A85A" stroke-width="1.55479" stroke-linejoin="round"/>
</svg>
