<svg width="42" height="42" viewBox="0 0 42 42" fill="none" xmlns="http://www.w3.org/2000/svg">
<path d="M36.3545 31.5C37.6657 31.5 38.7087 30.6748 39.6452 29.521C41.5622 27.159 38.4147 25.2715 37.2142 24.3471C35.9939 23.4073 34.6314 22.875 33.2499 22.75M31.4999 19.25C33.9161 19.25 35.8749 17.2912 35.8749 14.875C35.8749 12.4588 33.9161 10.5 31.4999 10.5" stroke="#01A85A" stroke-width="3" stroke-linecap="round"/>
<path d="M5.6453 31.5C4.33403 31.5 3.29105 30.6748 2.35458 29.521C0.437533 27.159 3.58505 25.2715 4.78551 24.3471C6.00583 23.4073 7.3684 22.875 8.74988 22.75M9.62488 19.25C7.20863 19.25 5.24988 17.2912 5.24988 14.875C5.24988 12.4588 7.20863 10.5 9.62488 10.5" stroke="#01A85A" stroke-width="3" stroke-linecap="round"/>
<path d="M14.1465 26.4446C12.3584 27.5502 7.6701 29.8079 10.5256 32.633C11.9205 34.013 13.474 35 15.4272 35H26.5725C28.5257 35 30.0793 34.013 31.4742 32.633C34.3297 29.8079 29.6413 27.5502 27.8532 26.4446C23.6601 23.8518 18.3396 23.8518 14.1465 26.4446Z" stroke="#01A85A" stroke-width="3" stroke-linecap="round" stroke-linejoin="round"/>
<path d="M27.1249 13.125C27.1249 16.5077 24.3826 19.25 20.9999 19.25C17.6171 19.25 14.8749 16.5077 14.8749 13.125C14.8749 9.74226 17.6171 7 20.9999 7C24.3826 7 27.1249 9.74226 27.1249 13.125Z" stroke="#01A85A" stroke-width="3"/>
</svg>
