<svg width="131" height="119" viewBox="0 0 131 119" fill="none" xmlns="http://www.w3.org/2000/svg">
<path d="M127.24 110.25C131.83 110.25 135.48 107.362 138.758 103.324C145.468 95.0566 134.451 88.4501 130.25 85.2147C125.979 81.9257 121.21 80.0624 116.374 79.625M110.249 67.375C118.706 67.375 125.562 60.5194 125.562 52.0625C125.562 43.6056 118.706 36.75 110.249 36.75" stroke="#C1C1C1" stroke-opacity="0.3" stroke-width="8" stroke-linecap="round"/>
<path d="M19.7585 110.25C15.169 110.25 11.5186 107.362 8.24098 103.324C1.5313 95.0566 12.5476 88.4501 16.7492 85.2147C21.0204 81.9257 25.7893 80.0624 30.6245 79.625M33.687 67.375C25.2302 67.375 18.3745 60.5194 18.3745 52.0625C18.3745 43.6056 25.2302 36.75 33.687 36.75" stroke="#C1C1C1" stroke-opacity="0.3" stroke-width="8" stroke-linecap="round"/>
<path d="M49.5126 92.556C43.2542 96.4259 26.8451 104.328 36.8393 114.215C41.7214 119.046 47.1588 122.5 53.995 122.5H93.0035C99.8397 122.5 105.277 119.046 110.159 114.215C120.153 104.328 103.744 96.4259 97.486 92.556C82.8101 83.4813 64.1884 83.4813 49.5126 92.556Z" stroke="#C1C1C1" stroke-opacity="0.3" stroke-width="8" stroke-linecap="round" stroke-linejoin="round"/>
<path d="M94.9368 45.9375C94.9368 57.7771 85.3389 67.375 73.4993 67.375C61.6597 67.375 52.0618 57.7771 52.0618 45.9375C52.0618 34.0979 61.6597 24.5 73.4993 24.5C85.3389 24.5 94.9368 34.0979 94.9368 45.9375Z" stroke="#C1C1C1" stroke-opacity="0.3" stroke-width="8"/>
</svg>
